<?xml version="1.0" encoding="UTF-8" standalone="no"?>
<svg width="500px" height="500px" viewBox="0 0 500 500" version="1.1" xmlns="http://www.w3.org/2000/svg" xmlns:xlink="http://www.w3.org/1999/xlink">
    <!-- Generator: Sketch 42 (36781) - http://www.bohemiancoding.com/sketch -->
    <title>WES</title>
    <desc>Created with Sketch.</desc>
    <defs>
        <polygon id="path-1" points="0 495.265584 478.2115 495.265584 478.2115 -0.000649350649 0 -0.000649350649"></polygon>
    </defs>
    <g id="Page-1" stroke="none" stroke-width="1" fill="none" fill-rule="evenodd">
        <g id="WES">
            <g id="Page-1" transform="translate(10.000000, 0.000000)">
                <path d="M238.99655,491.463636 C114.58655,491.463636 13.73255,390.612987 13.73255,266.21039 C13.73255,141.807792 114.58655,40.9571429 238.99655,40.9571429 C363.40005,40.9571429 464.26055,141.807792 464.26055,266.21039 C464.26055,390.612987 363.40005,491.463636 238.99655,491.463636 Z" id="Fill-1" fill="#BA9653"></path>
                <path d="M238.99655,491.463636 C363.40005,491.463636 464.26055,390.612987 464.26055,266.21039 C464.26055,141.807792 363.40005,40.9571429 238.99655,40.9571429 C114.58655,40.9571429 13.73255,141.807792 13.73255,266.21039 C13.73255,390.612987 114.58655,491.463636 238.99655,491.463636 Z" id="Stroke-3" stroke="#ED174B" stroke-width="7.6038961"></path>
                <path d="M239.00955,487.500649 C361.37855,487.500649 460.58155,388.305844 460.58155,265.942208 C460.58155,143.578571 361.37855,44.3837662 239.00955,44.3837662 C116.64055,44.3837662 17.43755,143.578571 17.43755,265.942208 C17.43755,388.305844 116.64055,487.500649 239.00955,487.500649 Z" id="Stroke-5" stroke="#051821" stroke-width="4.94805195"></path>
                <path d="M239.00955,487.500649 C361.37855,487.500649 460.58155,388.305844 460.58155,265.942208 C460.58155,143.578571 361.37855,44.3837662 239.00955,44.3837662 C116.64055,44.3837662 17.43755,143.578571 17.43755,265.942208 C17.43755,388.305844 116.64055,487.500649 239.00955,487.500649 Z" id="Stroke-7" stroke="#051821" stroke-width="3.7987013"></path>
                <path d="M330.91695,67.3948052 C325.85995,58.4532468 281.92645,39.0051948 240.44995,39.0051948 C198.97345,39.0051948 155.03995,58.4532468 149.98295,67.3948052 L149.98295,120.888312 L330.96895,120.888312 L330.91695,67.3948052 Z" id="Fill-9" fill="#051821"></path>
                <path d="M330.91695,67.3948052 C325.85995,58.4532468 281.92645,39.0051948 240.44995,39.0051948 C198.97345,39.0051948 155.03995,58.4532468 149.98295,67.3948052 L149.98295,120.888312 L330.96895,120.888312 L330.91695,67.3948052 Z" id="Stroke-11" stroke="#ED174B" stroke-width="5.82467532"></path>
                <path d="M330.91695,67.3948052 C325.85995,58.4532468 281.92645,39.0051948 240.44995,39.0051948 C198.97345,39.0051948 155.03995,58.4532468 149.98295,67.3948052 L149.98295,120.888312 L330.96895,120.888312 L330.91695,67.3948052 Z" id="Stroke-13" stroke="#ED174B" stroke-width="5.13636364"></path>
                <path d="M306.6115,17.324026 C283.452,6.38246753 262.327,3.15519481 239.6095,2.92792208 C211.3605,2.63571429 185.0615,9.20714286 172.6075,16.3824675 L172.6075,114.811039 L306.657,114.811039 L306.6115,17.324026 Z" id="Fill-15" fill="#051821"></path>
                <path d="M306.6115,17.324026 C283.452,6.38246753 262.327,3.15519481 239.6095,2.92792208 C211.3605,2.63571429 185.0615,9.20714286 172.6075,16.3824675 L172.6075,114.811039 L306.657,114.811039 L306.6115,17.324026 Z" id="Stroke-17" stroke="#ED174B" stroke-width="5.83766234"></path>
                <path d="M306.6115,17.324026 C283.452,6.38246753 262.327,3.15519481 239.6095,2.92792208 C211.3605,2.63571429 185.0615,9.20714286 172.6075,16.3824675 L172.6075,114.811039 L306.657,114.811039 L306.6115,17.324026 Z" id="Stroke-19" stroke="#ED174B" stroke-width="5.14935065"></path>
                <path d="M216.95115,18.4590909 L216.95115,19.6538961 C215.82665,20.1538961 215.69015,20.8876623 215.69015,21.7772727 L215.69015,68.024026 C215.69015,68.9201299 215.82665,69.575974 216.95115,69.4785714 L216.95115,70.6668831 L208.39065,71.8097403 L208.39065,70.6084416 C209.20315,70.4006494 209.42415,69.9396104 209.42415,69.2383117 C209.42415,67.9461039 208.29965,66.9590909 196.40465,40.7837662 L196.40465,71.3357143 C196.40465,72.2318182 196.54115,72.9006494 197.67215,72.7902597 L197.67215,73.9915584 L189.11165,76.2577922 L189.11165,75.0694805 C190.23615,74.5694805 190.37265,73.8357143 190.37265,72.9461039 L190.37265,26.9785714 C190.37265,26.088961 190.23615,25.4201299 189.11165,25.5305195 L189.11165,24.3292208 C190.24915,23.9071429 198.92665,21.6474026 199.96665,21.4525974 L199.96665,22.6474026 C198.92665,23.011039 198.70565,23.6733766 198.70565,24.2707792 C198.70565,25.3616883 206.49915,41.8746753 209.65165,48.6928571 L209.65165,22.6214286 C209.65165,21.4201299 209.29415,21.0305195 208.70265,21.075974 L208.70265,19.8876623 C209.56065,19.6279221 215.87865,18.524026 216.95115,18.4590909" id="Fill-21" fill="#FEFEFE"></path>
                <path d="M216.95115,18.4590909 L216.95115,19.6538961 C215.82665,20.1538961 215.69015,20.8876623 215.69015,21.7772727 L215.69015,68.024026 C215.69015,68.9201299 215.82665,69.575974 216.95115,69.4785714 L216.95115,70.6668831 L208.39065,71.8097403 L208.39065,70.6084416 C209.20315,70.4006494 209.42415,69.9396104 209.42415,69.2383117 C209.42415,67.9461039 208.29965,66.9590909 196.40465,40.7837662 L196.40465,71.3357143 C196.40465,72.2318182 196.54115,72.9006494 197.67215,72.7902597 L197.67215,73.9915584 L189.11165,76.2577922 L189.11165,75.0694805 C190.23615,74.5694805 190.37265,73.8357143 190.37265,72.9461039 L190.37265,26.9785714 C190.37265,26.088961 190.23615,25.4201299 189.11165,25.5305195 L189.11165,24.3292208 C190.24915,23.9071429 198.92665,21.6474026 199.96665,21.4525974 L199.96665,22.6474026 C198.92665,23.011039 198.70565,23.6733766 198.70565,24.2707792 C198.70565,25.3616883 206.49915,41.8746753 209.65165,48.6928571 L209.65165,22.6214286 C209.65165,21.4201299 209.29415,21.0305195 208.70265,21.075974 L208.70265,19.8876623 C209.56065,19.6279221 215.87865,18.524026 216.95115,18.4590909 Z" id="Stroke-23" stroke="#FEFEFE" stroke-width="1.33766234"></path>
                <path d="M236.50185,62.3474026 L244.16535,62.3474026 C247.31135,62.3474026 248.57235,55.6006494 248.57235,52.6331169 C248.57235,49.6655844 247.31135,45.75 244.16535,45.75 L236.50185,45.75 L236.50185,62.3474026 Z M236.50185,38.8733766 L242.62485,38.8733766 C246.49885,38.8733766 247.49335,32.7954545 247.49335,30.0941558 C247.49335,27.3928571 246.49885,24.1655844 242.62485,24.1655844 L236.50185,24.1655844 L236.50185,38.8733766 Z M229.74185,19.0357143 C229.74185,18.4253247 229.61185,17.9577922 228.48735,17.8214286 L228.48735,17.0162338 L245.64735,17.0162338 C250.51585,17.0162338 254.07135,22.5487013 254.07135,29.2175325 C254.07135,33.2694805 252.27735,41.4318182 249.74885,42.237013 L249.74885,42.3798701 C252.76485,43.5876623 254.96835,48.8538961 254.96835,53.8409091 C254.96835,59.2435065 252.27735,69.5032468 245.87485,69.5032468 L228.48735,69.5032468 L228.48735,68.6915584 C229.61185,68.5551948 229.74185,68.0811688 229.74185,67.4772727 L229.74185,19.0357143 Z" id="Fill-25" fill="#FEFEFE"></path>
                <path d="M236.50185,62.3474026 L244.16535,62.3474026 C247.31135,62.3474026 248.57235,55.6006494 248.57235,52.6331169 C248.57235,49.6655844 247.31135,45.75 244.16535,45.75 L236.50185,45.75 L236.50185,62.3474026 Z M236.50185,38.8733766 L242.62485,38.8733766 C246.49885,38.8733766 247.49335,32.7954545 247.49335,30.0941558 C247.49335,27.3928571 246.49885,24.1655844 242.62485,24.1655844 L236.50185,24.1655844 L236.50185,38.8733766 Z M229.74185,19.0357143 C229.74185,18.4253247 229.61185,17.9577922 228.48735,17.8214286 L228.48735,17.0162338 L245.64735,17.0162338 C250.51585,17.0162338 254.07135,22.5487013 254.07135,29.2175325 C254.07135,33.2694805 252.27735,41.4318182 249.74885,42.237013 L249.74885,42.3798701 C252.76485,43.5876623 254.96835,48.8538961 254.96835,53.8409091 C254.96835,59.2435065 252.27735,69.5032468 245.87485,69.5032468 L228.48735,69.5032468 L228.48735,68.6915584 C229.61185,68.5551948 229.74185,68.0811688 229.74185,67.4772727 L229.74185,19.0357143 Z" id="Stroke-27" stroke="#FEFEFE" stroke-width="1.33766234"></path>
                <path d="M273.1404,52.5753247 L281.5124,54.7181818 L277.1444,30.8220779 L273.1404,52.5753247 Z M272.0094,60.9584416 C270.8394,68.2311688 270.5664,69.1337662 270.5664,69.7571429 C270.5664,70.374026 270.7549,70.8415584 271.3789,71.0038961 L271.2424,72.1012987 L263.2214,70.7766234 L263.2214,69.5298701 C263.8454,69.3805195 264.1119,69.0298701 264.3914,67.438961 C264.8009,65.1662338 272.6009,22.8155844 272.6009,22.1987013 C272.6009,21.4714286 272.1069,21.1337662 271.6974,20.938961 L271.6974,19.6857143 L283.4624,22.6922078 L283.4624,23.9454545 C282.9619,23.9194805 282.6499,24.0428571 282.6499,25.0818182 C282.6499,25.9064935 288.1879,55.9584416 290.9829,72.4324675 C291.4314,75.0233766 291.7044,75.7181818 292.2439,75.8545455 L292.2439,77.1012987 L283.3649,74.8350649 L283.3649,73.5883117 C284.0019,73.6402597 284.2164,73.1922078 284.2164,72.5623377 C284.2164,72.1532468 282.8709,64.7051948 282.6954,63.3155844 L272.0094,60.9584416 Z" id="Fill-29" fill="#FEFEFE"></path>
                <path d="M273.1404,52.5753247 L281.5124,54.7181818 L277.1444,30.8220779 L273.1404,52.5753247 Z M272.0094,60.9584416 C270.8394,68.2311688 270.5664,69.1337662 270.5664,69.7571429 C270.5664,70.374026 270.7549,70.8415584 271.3789,71.0038961 L271.2424,72.1012987 L263.2214,70.7766234 L263.2214,69.5298701 C263.8454,69.3805195 264.1119,69.0298701 264.3914,67.438961 C264.8009,65.1662338 272.6009,22.8155844 272.6009,22.1987013 C272.6009,21.4714286 272.1069,21.1337662 271.6974,20.938961 L271.6974,19.6857143 L283.4624,22.6922078 L283.4624,23.9454545 C282.9619,23.9194805 282.6499,24.0428571 282.6499,25.0818182 C282.6499,25.9064935 288.1879,55.9584416 290.9829,72.4324675 C291.4314,75.0233766 291.7044,75.7181818 292.2439,75.8545455 L292.2439,77.1012987 L283.3649,74.8350649 L283.3649,73.5883117 C284.0019,73.6402597 284.2164,73.1922078 284.2164,72.5623377 C284.2164,72.1532468 282.8709,64.7051948 282.6954,63.3155844 L272.0094,60.9584416 Z" id="Stroke-31" stroke="#FEFEFE" stroke-width="1.33766234"></path>
                <path d="M127.8303,391.543506 C199.8243,454.933117 307.7828,445.816234 368.9413,371.199351 C430.0998,296.582468 421.3053,184.712338 349.3048,121.329221 C277.3108,57.9396104 169.3588,67.05 108.1938,141.673377 C47.0353,216.29026 55.8298,328.16039 127.8303,391.543506" id="Fill-33" fill="#CC6C18"></path>
                <path d="M127.8303,391.543506 C199.8243,454.933117 307.7828,445.816234 368.9413,371.199351 C430.0998,296.582468 421.3053,184.712338 349.3048,121.329221 C277.3108,57.9396104 169.3588,67.05 108.1938,141.673377 C47.0353,216.29026 55.8298,328.16039 127.8303,391.543506 Z" id="Stroke-35" stroke="#051821" stroke-width="8"></path>
                <path d="M127.8303,391.543506 C199.8243,454.933117 307.7828,445.816234 368.9413,371.199351 C430.0998,296.582468 421.3053,184.712338 349.3048,121.329221 C277.3108,57.9396104 169.3588,67.05 108.1938,141.673377 C47.0353,216.29026 55.8298,328.16039 127.8303,391.543506 Z" id="Stroke-37" stroke="#051821" stroke-width="6.85064935"></path>
                <path d="M218.1699,79.8746753 C174.0349,181.166883 194.3149,346.80974 259.9194,431.426623" id="Stroke-39" stroke="#051821" stroke-width="8"></path>
                <path d="M127.8303,391.543506 C175.2283,412.355195 308.8358,434.998052 393.5308,330.127922" id="Stroke-41" stroke="#051821" stroke-width="8"></path>
                <path d="M151.97,104.599351 C140.036,123.657792 66.677,246.70974 172.549,369.456494 C186.524,385.670779 206.635,397.631818 208.9295,409.372078 C211.016,420.105844 205.647,426.657792 200.278,429.638312" id="Stroke-43" stroke="#051821" stroke-width="8"></path>
                <path d="M280.20525,84.637013 C293.32875,100.137013 337.46375,239.559091 293.32875,356.351299 C282.76625,384.286364 276.61725,394.481169 279.00925,401.03961 C283.21475,412.572078 298.69775,415.338312 321.95475,410.565584" id="Stroke-45" stroke="#051821" stroke-width="8"></path>
                <path d="M218.1699,79.8746753 C174.0349,181.166883 194.3149,346.80974 259.9194,431.426623" id="Stroke-47" stroke="#051821" stroke-width="6.85064935"></path>
                <path d="M127.8303,391.543506 C175.2283,412.355195 308.8358,434.998052 393.5308,330.127922" id="Stroke-49" stroke="#051821" stroke-width="6.85064935"></path>
                <path d="M151.97,104.599351 C140.036,123.657792 66.677,246.70974 172.549,369.456494 C186.524,385.670779 206.635,397.631818 208.9295,409.372078 C211.016,420.105844 205.647,426.657792 200.278,429.638312" id="Stroke-51" stroke="#051821" stroke-width="6.85064935"></path>
                <path d="M280.20525,84.637013 C293.32875,100.137013 337.46375,239.559091 293.32875,356.351299 C282.76625,384.286364 276.61725,394.481169 279.00925,401.03961 C283.21475,412.572078 298.69775,415.338312 321.95475,410.565584" id="Stroke-53" stroke="#051821" stroke-width="6.85064935"></path>
                <polygon id="Fill-55" fill="#051821" points="238.9205 121.137662 477.6395 204.949351 477.6395 309.364935 239.707 404.851948 0.572 309.364935 0.572 204.455844"></polygon>
                <polygon id="Stroke-57" stroke="#051821" stroke-width="1.14285714" points="238.9205 121.137662 477.6395 204.949351 477.6395 309.364935 239.707 404.851948 0.572 309.364935 0.572 204.455844"></polygon>
                <polygon id="Fill-59" fill="#ED174B" points="238.45705 95.2331169 467.39355 180.681169 467.39355 304.733117 239.21105 395.161688 11.02855 304.733117 11.02855 180.681169"></polygon>
                <polygon id="Stroke-61" stroke="#051821" stroke-width="8" points="238.45705 95.2331169 467.39355 180.681169 467.39355 304.733117 239.21105 395.161688 11.02855 304.733117 11.02855 180.681169"></polygon>
                <polygon id="Stroke-63" stroke="#051821" stroke-width="6.85064935" points="238.45705 95.2331169 467.39355 180.681169 467.39355 304.733117 239.21105 395.161688 11.02855 304.733117 11.02855 180.681169"></polygon>
                <polygon id="Fill-65" fill="#FEFEFE" points="46.7389 293.044156 38.5489 205.784416 33.1084 207.797403 31.9319 196.375325 52.3354 189.342857 55.3124 273.933766 59.4789 187.174026 70.4379 182.790909 76.3724 274.914286 80.6754 179.479221 100.0454 173.161039 100.0454 185.167532 96.9644 186.154545 84.2309 307.881818 68.9559 301.433766 65.4264 249.557143 61.7669 298.927273"></polygon>
                <path d="M200.96765,354.859091 C206.05715,356.969481 209.61915,354.852597 209.61915,348.274675 L209.61915,271.638312 C209.61915,264.274675 207.35065,259.735714 205.66065,256.846104 L181.89015,214.222727 C180.21965,212.937013 180.48615,196.170779 180.48615,195.547403 L180.48615,164.800649 C180.48615,163.066883 179.66715,159.735714 182.85215,158.488961 L188.96865,156.488961 C192.82965,155.242208 192.92065,158.346104 192.90115,161.398052 L192.90115,203.164286 L206.94115,209.488961 L206.94115,151.911039 C206.94115,136.943506 204.49065,136.372078 196.55415,138.807143 C194.20115,139.534416 172.79015,146.878571 172.79015,146.878571 C165.17865,149.203247 166.44615,153.216234 166.44615,164.274675 L166.44615,203.281169 C166.44615,217.144805 169.68965,220.216234 172.12065,224.417532 L194.25965,265.073377 C194.65615,265.70974 195.57915,267.300649 195.57915,273.813636 L195.57915,331.294156 C195.57915,338.677273 196.16415,340.274675 192.80365,338.865584 L184.40565,335.300649 C182.23465,334.456494 182.48815,333.618831 182.48815,328.917532 L182.48815,286.430519 L168.44815,275.807143 L168.44815,333.735714 C168.44815,335.618831 167.19365,340.794156 173.92115,344.131818 L200.96765,354.859091 Z" id="Fill-67" fill="#FEFEFE"></path>
                <path d="M350.29605,236.542857 L352.41505,237.133766 C355.28155,237.932468 358.24555,236.198701 358.24555,231.374026 L358.26505,183.348052 C358.27155,178.523377 355.30755,177.731169 352.43455,176.776623 L350.32205,176.016883 L350.29605,236.542857 Z M327.25355,332.627273 L327.25355,321.432468 L332.95405,318.984416 L332.95405,171.133766 L326.18755,168.711688 L326.18755,156.146753 L351.62855,165.185714 C368.19705,171.263636 373.52055,173.666234 373.50105,189.127273 L373.49455,231.815584 C373.48805,239.335065 369.23705,243.458442 359.05805,243.081818 L359.05805,243.361039 C372.63655,243.750649 371.86305,250.568831 371.86305,264.28961 L371.84355,298.984416 C371.84355,308.776623 373.45555,310.224675 374.44355,313.809091 L358.96055,319.945455 C357.71905,317.575325 356.59455,316.309091 356.60755,309.354545 L356.63355,261.555844 C356.64005,255.309091 355.66505,251.146753 348.83355,251.146753 L348.80755,312.958442 L352.17455,311.555844 L352.17455,322.614286 L327.25355,332.627273 Z" id="Fill-69" fill="#FEFEFE"></path>
                <polygon id="Fill-71" fill="#FEFEFE" points="413.9187 185.577922 430.4222 263.75974 426.0607 202.220779 420.5552 200.538961 420.5552 188.162338 443.7147 196 443.7147 208.428571 439.9187 207.207792 439.9187 288.785714 425.4887 294.980519 407.7957 228.097403 407.7957 301.461039 386.5862 310.402597 386.5862 299.116883 392.5662 296.590909 392.5662 190.584416 386.5862 188.493506 386.5862 176.279221"></polygon>
                <polygon id="Fill-73" fill="#FEFEFE" points="101.3792 314.547403 101.3792 303.274675 106.4687 305.644805 106.5922 170.969481 153.6587 154.333117 153.6587 211.183766 139.8592 205.20974 139.8592 171.300649 122.7447 177.33961 122.7447 239.183766 134.9062 239.183766 134.9062 228.995455 145.0267 228.995455 145.0267 262.540909 134.9062 262.540909 134.9062 252.352597 122.7447 252.352597 122.7447 311.729221 139.8592 318.56039 139.8592 281.527922 153.6587 275.761688 153.6587 335.294156"></polygon>
                <polygon id="Fill-75" fill="#FEFEFE" points="288.4323 252.358442 299.6578 252.358442 299.6578 262.54026 308.9788 262.54026 308.9788 228.994805 299.6578 228.994805 299.6578 239.183117 288.4323 239.183117 288.4323 154.287013 304.2143 159.546753 304.2143 210.936364 316.9413 204.812987 316.9413 151.741558 273.5278 136.553247 273.4238 342.345455 268.7243 344.748052 268.7243 355.631169 316.9413 336.663636 316.9413 285.774026 304.2143 279.390909 304.2143 330.319481 288.4323 336.962338 288.4323 252.351948"></polygon>
                <polygon id="Fill-77" fill="#FEFEFE" points="239.48535 366.15974 227.44085 361.536364 227.44085 349.02987 231.04185 350.666234 231.04185 139.887013 210.26135 146.731169 210.15085 134.575325 238.46485 124.412987 269.16435 134.737662 269.16435 146.893506 247.16835 139.887013 247.16835 350.666234 250.71085 349.101299 250.71085 361.607792"></polygon>
                <polygon id="Fill-79" fill="#ED174B" points="264.34265 148.442857 250.45865 143.981818 250.45865 146.936364 264.34265 151.312987"></polygon>
                <polygon id="Fill-81" fill="#051821" points="227.71645 144.22013 227.71645 345.947403 224.42745 344.47987 224.42745 145.155195"></polygon>
                <polygon id="Stroke-83" stroke="#ED174B" stroke-width="1.14285714" points="227.71645 144.22013 227.71645 345.947403 224.42745 344.47987 224.42745 145.155195"></polygon>
                <polygon id="Fill-85" fill="#051821" points="223.40695 347.459091 223.40695 360.400649 219.85145 359.017532 219.85145 345.855195"></polygon>
                <polygon id="Stroke-87" stroke="#ED174B" stroke-width="1.14285714" points="223.40695 347.459091 223.40695 360.400649 219.85145 359.017532 219.85145 345.855195"></polygon>
                <polygon id="Fill-89" fill="#051821" points="28.66045 197.17013 29.78495 207.916883 26.57395 209.046753 25.39095 198.111688"></polygon>
                <polygon id="Stroke-91" stroke="#ED174B" stroke-width="1.14285714" points="28.66045 197.17013 29.78495 207.916883 26.57395 209.046753 25.39095 198.111688"></polygon>
                <polygon id="Fill-93" fill="#051821" points="32.56435 211.558442 35.69085 210.376623 43.46485 291.75974 40.19535 290.662338"></polygon>
                <polygon id="Stroke-95" stroke="#ED174B" stroke-width="1.14285714" points="32.56435 211.558442 35.69085 210.376623 43.46485 291.75974 40.19535 290.662338"></polygon>
                <polygon id="Fill-97" fill="#051821" points="77.40395 180.631818 74.13445 181.937013 73.89395 187.553896 75.98695 211.787662"></polygon>
                <polygon id="Stroke-99" stroke="#ED174B" stroke-width="1.14285714" points="77.40395 180.631818 74.13445 181.937013 73.89395 187.553896 75.98695 211.787662"></polygon>
                <polygon id="Fill-101" fill="#051821" points="99.95765 188.462987 103.20765 187.346104 103.20765 300.852597 99.93165 299.508442"></polygon>
                <polygon id="Stroke-103" stroke="#ED174B" stroke-width="1.14285714" points="99.95765 188.462987 103.20765 187.346104 103.20765 300.852597 99.93165 299.508442"></polygon>
                <polygon id="Fill-105" fill="#051821" points="98.15455 302.251948 94.83305 300.771429 94.83305 311.622078 98.10255 313.141558"></polygon>
                <polygon id="Stroke-107" stroke="#ED174B" stroke-width="1.14285714" points="98.15455 302.251948 94.83305 300.771429 94.83305 311.622078 98.10255 313.141558"></polygon>
                <polygon id="Fill-109" fill="#051821" points="133.30785 202.217532 133.30785 177.366883 136.59035 176.185065 136.59035 207.159091 147.07485 211.743506 147.07485 214.63961 133.30785 209.159091"></polygon>
                <polygon id="Stroke-111" stroke="#ED174B" stroke-width="1.14285714" points="133.30785 202.217532 133.30785 177.366883 136.59035 176.185065 136.59035 207.159091 147.07485 211.743506 147.07485 214.63961 133.30785 209.159091"></polygon>
                <polygon id="Fill-113" fill="#051821" points="131.6705 228.996753 131.6705 236.198052 128.362 236.198052 128.362 229.035714"></polygon>
                <polygon id="Stroke-115" stroke="#ED174B" stroke-width="1.14285714" points="131.6705 228.996753 131.6705 236.198052 128.362 236.198052 128.362 229.035714"></polygon>
                <mask id="mask-2" fill="white">
                    <use xlink:href="#path-1"></use>
                </mask>
                <g id="Clip-118"></g>
                <polygon id="Fill-117" fill="#051821" mask="url(#mask-2)" points="128.4985 262.564286 131.6705 262.564286 131.6705 255.311039 128.4985 255.311039"></polygon>
                <polygon id="Stroke-119" stroke="#ED174B" stroke-width="1.14285714" mask="url(#mask-2)" points="128.4985 262.564286 131.6705 262.564286 131.6705 255.311039 128.4985 255.311039"></polygon>
                <polygon id="Fill-120" fill="#051821" mask="url(#mask-2)" points="133.3969 277.850649 133.3969 312.811688 136.5884 313.844156 136.5884 279.792208 147.1119 275.227273 147.1119 272.37013"></polygon>
                <polygon id="Stroke-121" stroke="#ED174B" stroke-width="1.14285714" mask="url(#mask-2)" points="133.3969 277.850649 133.3969 312.811688 136.5884 313.844156 136.5884 279.792208 147.1119 275.227273 147.1119 272.37013"></polygon>
                <path d="M185.68875,163.027922 L185.68875,207.06039 L201.23025,213.514935 L201.23025,210.235714 L189.28975,204.878571 L189.28975,161.294156 C189.28975,160.670779 189.53675,158.975974 187.32675,159.443506 C185.05175,159.930519 184.50575,160.157792 184.50575,160.157792 C184.86975,160.157792 185.68875,160.872078 185.68875,163.027922" id="Fill-122" fill="#051821" mask="url(#mask-2)"></path>
                <path d="M185.68875,163.027922 L185.68875,207.06039 L201.23025,213.514935 L201.23025,210.235714 L189.28975,204.878571 L189.28975,161.294156 C189.28975,160.670779 189.53675,158.975974 187.32675,159.443506 C185.05175,159.930519 184.50575,160.157792 184.50575,160.157792 C184.86975,160.157792 185.68875,160.872078 185.68875,163.027922 Z" id="Stroke-123" stroke="#ED174B" stroke-width="1.14285714" mask="url(#mask-2)"></path>
                <path d="M161.79605,271.870779 L161.60105,332.169481 C161.43205,337.137013 162.07555,339.89026 168.34155,342.637013 C167.42505,341.851299 163.79805,338.396753 164.89005,332.416234 L165.07205,274.39026 L161.79605,271.870779 Z" id="Fill-124" fill="#051821" mask="url(#mask-2)"></path>
                <path d="M161.79605,271.870779 L161.60105,332.169481 C161.43205,337.137013 162.07555,339.89026 168.34155,342.637013 C167.42505,341.851299 163.79805,338.396753 164.89005,332.416234 L165.07205,274.39026 L161.79605,271.870779 Z" id="Stroke-125" stroke="#ED174B" stroke-width="1.14285714" mask="url(#mask-2)"></path>
                <path d="M188.9641,332.5 C189.1396,331.714286 188.8666,274.623377 188.8666,271.961039 C188.8666,266.603896 187.4171,265.655844 186.4161,263.772727 C185.4216,261.727273 168.5996,230.363636 165.3366,225.162338 C161.7421,219.448052 159.5646,215.194805 159.5646,208.181818 L159.5646,158.188312 C159.3826,150.318182 166.2856,149.461039 166.7926,149.324675 C162.5221,151.448052 163.1071,157.564935 162.9251,158.272727 L162.9251,208.25974 C163.0161,215.032468 166.0126,220.311688 168.5476,223.928571 L189.7246,262.896104 C190.8036,264.720779 192.2336,267.253247 192.2336,270.305195 L192.2336,333.915584 C192.2336,334.616883 192.8706,336.357143 190.4201,335.655844 C187.5341,334.850649 188.5091,334.857143 188.5091,334.857143 C188.5091,334.857143 189.0031,335.233766 188.9641,332.5" id="Fill-126" fill="#051821" mask="url(#mask-2)"></path>
                <path d="M188.9641,332.5 C189.1396,331.714286 188.8666,274.623377 188.8666,271.961039 C188.8666,266.603896 187.4171,265.655844 186.4161,263.772727 C185.4216,261.727273 168.5996,230.363636 165.3366,225.162338 C161.7421,219.448052 159.5646,215.194805 159.5646,208.181818 L159.5646,158.188312 C159.3826,150.318182 166.2856,149.461039 166.7926,149.324675 C162.5221,151.448052 163.1071,157.564935 162.9251,158.272727 L162.9251,208.25974 C163.0161,215.032468 166.0126,220.311688 168.5476,223.928571 L189.7246,262.896104 C190.8036,264.720779 192.2336,267.253247 192.2336,270.305195 L192.2336,333.915584 C192.2336,334.616883 192.8706,336.357143 190.4201,335.655844 C187.5341,334.850649 188.5091,334.857143 188.5091,334.857143 C188.5091,334.857143 189.0031,335.233766 188.9641,332.5 Z" id="Stroke-127" stroke="#ED174B" stroke-width="1.14285714" mask="url(#mask-2)"></path>
                <polygon id="Fill-128" fill="#051821" mask="url(#mask-2)" points="265.4028 356.894805 262.1268 358.024675 262.1268 347.355844 265.4028 345.894805"></polygon>
                <polygon id="Stroke-129" stroke="#ED174B" stroke-width="1.14285714" mask="url(#mask-2)" points="265.4028 356.894805 262.1268 358.024675 262.1268 347.355844 265.4028 345.894805"></polygon>
                <polygon id="Fill-130" fill="#051821" mask="url(#mask-2)" points="300.7082 279.403896 300.6757 328.949351 297.4062 330.261039 297.4062 279.403896"></polygon>
                <polygon id="Stroke-131" stroke="#ED174B" stroke-width="1.14285714" mask="url(#mask-2)" points="300.7082 279.403896 300.6757 328.949351 297.4062 330.261039 297.4062 279.403896"></polygon>
                <polygon id="Fill-132" fill="#051821" mask="url(#mask-2)" points="297.43935 211.342857 297.49785 160.31039 300.77385 161.394805 300.77385 211.342857"></polygon>
                <polygon id="Stroke-133" stroke="#ED174B" stroke-width="1.14285714" mask="url(#mask-2)" points="297.43935 211.342857 297.49785 160.31039 300.77385 161.394805 300.77385 211.342857"></polygon>
                <polygon id="Fill-134" fill="#051821" mask="url(#mask-2)" points="292.4818 228.673377 295.7513 228.673377 295.7513 236.329221 292.5013 236.329221"></polygon>
                <polygon id="Stroke-135" stroke="#ED174B" stroke-width="1.14285714" mask="url(#mask-2)" points="292.4818 228.673377 295.7513 228.673377 295.7513 236.329221 292.5013 236.329221"></polygon>
                <polygon id="Fill-136" fill="#051821" mask="url(#mask-2)" points="292.4818 255.224675 295.7513 255.224675 295.7513 262.568831 292.5013 262.568831"></polygon>
                <polygon id="Stroke-137" stroke="#ED174B" stroke-width="1.14285714" mask="url(#mask-2)" points="292.4818 255.224675 295.7513 255.224675 295.7513 262.568831 292.5013 262.568831"></polygon>
                <polygon id="Fill-138" fill="#051821" mask="url(#mask-2)" points="326.5054 172.343506 329.6839 173.473377 329.6839 317.440909 326.4339 318.596753"></polygon>
                <polygon id="Stroke-139" stroke="#ED174B" stroke-width="1.14285714" mask="url(#mask-2)" points="326.5054 172.343506 329.6839 173.473377 329.6839 317.440909 326.4339 318.596753"></polygon>
                <polygon id="Fill-140" fill="#051821" mask="url(#mask-2)" points="383.3102 174.791558 383.3102 187.265584 380.0407 186.369481 380.0407 173.668182"></polygon>
                <polygon id="Stroke-141" stroke="#ED174B" stroke-width="1.14285714" mask="url(#mask-2)" points="383.3102 174.791558 383.3102 187.265584 380.0407 186.369481 380.0407 173.668182"></polygon>
                <polygon id="Fill-142" fill="#051821" mask="url(#mask-2)" points="389.29605 294.896104 386.20855 296.279221 386.02655 191.571429 389.30255 192.493506"></polygon>
                <polygon id="Stroke-143" stroke="#ED174B" stroke-width="1.14285714" mask="url(#mask-2)" points="389.29605 294.896104 386.20855 296.279221 386.02655 191.571429 389.30255 192.493506"></polygon>
                <polygon id="Fill-144" fill="#051821" mask="url(#mask-2)" points="383.3102 300.26039 383.3102 311.773377 380.0407 313.111039 380.0407 301.383766"></polygon>
                <polygon id="Stroke-145" stroke="#ED174B" stroke-width="1.14285714" mask="url(#mask-2)" points="383.3102 300.26039 383.3102 311.773377 380.0407 313.111039 380.0407 301.383766"></polygon>
                <polygon id="Fill-146" fill="#051821" mask="url(#mask-2)" points="411.55725 254.698052 411.55725 267.048701 419.12975 297.613636 422.27575 296.204545"></polygon>
                <polygon id="Stroke-147" stroke="#ED174B" stroke-width="1.14285714" mask="url(#mask-2)" points="411.55725 254.698052 411.55725 267.048701 419.12975 297.613636 422.27575 296.204545"></polygon>
                <polygon id="Fill-148" fill="#051821" mask="url(#mask-2)" points="323.9665 322.303247 323.9665 333.822727 320.697 335.153896 320.697 323.433117"></polygon>
                <polygon id="Stroke-149" stroke="#ED174B" stroke-width="1.14285714" mask="url(#mask-2)" points="323.9665 322.303247 323.9665 333.822727 320.697 335.153896 320.697 323.433117"></polygon>
                <polygon id="Fill-150" fill="#051821" mask="url(#mask-2)" points="267.1487 149.444805 270.3272 150.581169 270.3272 340.724026 267.0772 341.886364"></polygon>
                <polygon id="Stroke-151" stroke="#ED174B" stroke-width="1.14285714" mask="url(#mask-2)" points="267.1487 149.444805 270.3272 150.581169 270.3272 340.724026 267.0772 341.886364"></polygon>
                <path d="M76.2047,365.677273 L78.2782,364.501948 C80.5337,363.242208 80.9107,361.670779 80.2412,360.482468 C79.2012,358.638312 77.9077,358.586364 75.9122,359.70974 L62.3727,367.326623 C60.3707,368.45 59.7467,369.57987 60.7867,371.430519 C61.7162,373.086364 63.0032,373.099351 64.7387,372.125325 L67.9497,370.313636 L70.5367,374.898052 L67.4687,376.625325 C63.6987,378.748701 59.3762,378.255195 56.7957,373.677273 C54.0852,368.872078 55.9052,364.930519 59.6817,362.807143 L73.4422,355.066883 C77.2122,352.943506 81.5282,353.437013 84.2387,358.235714 C86.8192,362.82013 84.7327,366.911039 80.7482,369.157792 L78.7787,370.261688 L76.2047,365.677273 Z" id="Fill-152" fill="#051821" mask="url(#mask-2)"></path>
                <path d="M76.2047,365.677273 L78.2782,364.501948 C80.5337,363.242208 80.9107,361.670779 80.2412,360.482468 C79.2012,358.638312 77.9077,358.586364 75.9122,359.70974 L62.3727,367.326623 C60.3707,368.45 59.7467,369.57987 60.7867,371.430519 C61.7162,373.086364 63.0032,373.099351 64.7387,372.125325 L67.9497,370.313636 L70.5367,374.898052 L67.4687,376.625325 C63.6987,378.748701 59.3762,378.255195 56.7957,373.677273 C54.0852,368.872078 55.9052,364.930519 59.6817,362.807143 L73.4422,355.066883 C77.2122,352.943506 81.5282,353.437013 84.2387,358.235714 C86.8192,362.82013 84.7327,366.911039 80.7482,369.157792 L78.7787,370.261688 L76.2047,365.677273 Z" id="Stroke-153" stroke="#BA9653" stroke-width="1.14285714" mask="url(#mask-2)"></path>
                <path d="M90.40395,406.724675 C88.72045,408.28961 88.37595,409.536364 89.83195,411.081818 C91.27495,412.64026 92.54895,412.380519 94.22595,410.828571 L105.58795,400.237662 C107.26495,398.685714 107.60295,397.432468 106.16645,395.874026 C104.71695,394.335065 103.44945,394.581818 101.77245,396.14026 L90.40395,406.724675 Z M98.27545,392.211688 C101.44095,389.263636 105.75045,388.731169 109.51395,392.757143 C113.27745,396.796104 112.43895,401.049351 109.26695,403.997403 L97.72295,414.750649 C94.55095,417.705195 90.24145,418.237662 86.47795,414.205195 C82.70795,410.172727 83.55295,405.912987 86.72495,402.964935 L98.27545,392.211688 Z" id="Fill-154" fill="#051821" mask="url(#mask-2)"></path>
                <path d="M90.40395,406.724675 C88.72045,408.28961 88.37595,409.536364 89.83195,411.081818 C91.27495,412.64026 92.54895,412.380519 94.22595,410.828571 L105.58795,400.237662 C107.26495,398.685714 107.60295,397.432468 106.16645,395.874026 C104.71695,394.335065 103.44945,394.581818 101.77245,396.14026 L90.40395,406.724675 Z M98.27545,392.211688 C101.44095,389.263636 105.75045,388.731169 109.51395,392.757143 C113.27745,396.796104 112.43895,401.049351 109.26695,403.997403 L97.72295,414.750649 C94.55095,417.705195 90.24145,418.237662 86.47795,414.205195 C82.70795,410.172727 83.55295,405.912987 86.72495,402.964935 L98.27545,392.211688 Z" id="Stroke-155" stroke="#BA9653" stroke-width="1.14285714" mask="url(#mask-2)"></path>
                <polygon id="Fill-156" fill="#051821" mask="url(#mask-2)" points="118.35915 441.849351 135.23965 416.303896 139.31515 418.992208 135.01215 437.128571 135.07715 437.174026 144.72315 422.557143 148.69465 425.180519 131.82065 450.719481 127.99215 448.206494 132.93865 428.550649 132.86715 428.505195 122.32415 444.45974"></polygon>
                <polygon id="Stroke-157" stroke="#BA9653" stroke-width="1.14285714" mask="url(#mask-2)" points="118.35915 441.849351 135.23965 416.303896 139.31515 418.992208 135.01215 437.128571 135.07715 437.174026 144.72315 422.557143 148.69465 425.180519 131.82065 450.719481 127.99215 448.206494 132.93865 428.550649 132.86715 428.505195 122.32415 444.45974"></polygon>
                <polygon id="Fill-158" fill="#051821" mask="url(#mask-2)" points="162.30435 465.933766 172.82135 437.180519 186.61435 442.212987 185.04135 446.518182 176.18835 443.290909 173.47785 450.693506 180.09485 453.109091 178.52185 457.401299 171.90485 454.985714 167.25085 467.738961"></polygon>
                <polygon id="Stroke-159" stroke="#BA9653" stroke-width="1.14285714" mask="url(#mask-2)" points="162.30435 465.933766 172.82135 437.180519 186.61435 442.212987 185.04135 446.518182 176.18835 443.290909 173.47785 450.693506 180.09485 453.109091 178.52185 457.401299 171.90485 454.985714 167.25085 467.738961"></polygon>
                <polygon id="Fill-160" fill="#051821" mask="url(#mask-2)" points="208.2678 477.411688 212.0248 447.022078 226.0128 448.755844 225.4473 453.301299 216.6853 452.223377 215.7168 460.041558 222.4638 460.879221 221.9048 465.418182 215.1578 464.587013 214.0593 473.502597 223.4063 474.658442 222.8408 479.203896"></polygon>
                <polygon id="Stroke-161" stroke="#BA9653" stroke-width="1.14285714" mask="url(#mask-2)" points="208.2678 477.411688 212.0248 447.022078 226.0128 448.755844 225.4473 453.301299 216.6853 452.223377 215.7168 460.041558 222.4638 460.879221 221.9048 465.418182 215.1578 464.587013 214.0593 473.502597 223.4063 474.658442 222.8408 479.203896"></polygon>
                <path d="M259.3916,462.148052 L261.2441,461.946753 C264.0716,461.648052 265.0141,460.479221 264.6241,456.855844 C264.2341,453.225974 263.0641,452.284416 260.2366,452.58961 L258.3776,452.797403 L259.3916,462.148052 Z M261.1986,478.927273 L255.9726,479.485714 L252.6836,449.057143 L260.0221,448.264935 C265.8916,447.635065 269.1546,449.803896 269.8566,456.290909 C270.3831,461.180519 268.6996,463.362338 267.0161,464.355844 L272.9311,477.667532 L267.6141,478.232468 L262.5441,466.037662 C261.8746,466.187013 260.7826,466.349351 259.8531,466.446753 L261.1986,478.927273 Z" id="Fill-162" fill="#051821" mask="url(#mask-2)"></path>
                <path d="M259.3916,462.148052 L261.2441,461.946753 C264.0716,461.648052 265.0141,460.479221 264.6241,456.855844 C264.2341,453.225974 263.0641,452.284416 260.2366,452.58961 L258.3776,452.797403 L259.3916,462.148052 Z M261.1986,478.927273 L255.9726,479.485714 L252.6836,449.057143 L260.0221,448.264935 C265.8916,447.635065 269.1546,449.803896 269.8566,456.290909 C270.3831,461.180519 268.6996,463.362338 267.0161,464.355844 L272.9311,477.667532 L267.6141,478.232468 L262.5441,466.037662 C261.8746,466.187013 260.7826,466.349351 259.8531,466.446753 L261.1986,478.927273 Z" id="Stroke-163" stroke="#BA9653" stroke-width="1.14285714" mask="url(#mask-2)"></path>
                <polygon id="Fill-164" fill="#051821" mask="url(#mask-2)" points="304.90395 469.795455 294.67945 440.938312 307.96545 436.237013 309.49295 440.555195 301.17295 443.496753 303.80545 450.931818 310.20145 448.665584 311.73545 452.983766 305.32645 455.25 308.33595 463.724026 317.22145 460.581169 318.74245 464.899351"></polygon>
                <polygon id="Stroke-165" stroke="#BA9653" stroke-width="1.14285714" mask="url(#mask-2)" points="304.90395 469.795455 294.67945 440.938312 307.96545 436.237013 309.49295 440.555195 301.17295 443.496753 303.80545 450.931818 310.20145 448.665584 311.73545 452.983766 305.32645 455.25 308.33595 463.724026 317.22145 460.581169 318.74245 464.899351"></polygon>
                <polygon id="Fill-166" fill="#051821" mask="url(#mask-2)" points="348.8173 449.687013 332.1773 423.979221 336.2788 421.336364 351.1703 432.563636 351.2483 432.524675 341.7323 417.81039 345.7168 415.232468 362.3568 440.94026 358.5088 443.427273 342.4798 431.005195 342.4148 431.050649 352.8083 447.115584"></polygon>
                <polygon id="Stroke-167" stroke="#BA9653" stroke-width="1.14285714" mask="url(#mask-2)" points="348.8173 449.687013 332.1773 423.979221 336.2788 421.336364 351.1703 432.563636 351.2483 432.524675 341.7323 417.81039 345.7168 415.232468 362.3568 440.94026 358.5088 443.427273 342.4798 431.005195 342.4148 431.050649 352.8083 447.115584"></polygon>
                <path d="M381.45705,396.832468 L379.73455,395.196104 C377.85605,393.416883 376.23105,393.514286 375.30155,394.501299 C373.84555,396.033766 374.17705,397.287013 375.83455,398.864935 L387.09905,409.553247 C388.75655,411.131169 390.01755,411.397403 391.48655,409.864935 C392.79955,408.481818 392.43555,407.254545 390.99255,405.884416 L388.31455,403.345455 L391.93505,399.533766 L394.49605,401.955844 C397.63555,404.936364 398.42205,409.202597 394.80805,413.014286 C391.00555,417.007792 386.70255,416.42987 383.56305,413.449351 L372.11655,402.585714 C368.98355,399.611688 368.18405,395.332468 371.98005,391.345455 C375.60705,387.533766 380.13105,388.325974 383.45255,391.475325 L385.08405,393.020779 L381.45705,396.832468 Z" id="Fill-168" fill="#051821" mask="url(#mask-2)"></path>
                <path d="M381.45705,396.832468 L379.73455,395.196104 C377.85605,393.416883 376.23105,393.514286 375.30155,394.501299 C373.84555,396.033766 374.17705,397.287013 375.83455,398.864935 L387.09905,409.553247 C388.75655,411.131169 390.01755,411.397403 391.48655,409.864935 C392.79955,408.481818 392.43555,407.254545 390.99255,405.884416 L388.31455,403.345455 L391.93505,399.533766 L394.49605,401.955844 C397.63555,404.936364 398.42205,409.202597 394.80805,413.014286 C391.00555,417.007792 386.70255,416.42987 383.56305,413.449351 L372.11655,402.585714 C368.98355,399.611688 368.18405,395.332468 371.98005,391.345455 C375.60705,387.533766 380.13105,388.325974 383.45255,391.475325 L385.08405,393.020779 L381.45705,396.832468 Z" id="Stroke-169" stroke="#BA9653" stroke-width="1.14285714" mask="url(#mask-2)"></path>
                <polygon id="Fill-170" fill="#051821" mask="url(#mask-2)" points="417.7082 382.285714 391.2402 366.844156 398.3447 354.688312 402.3032 357 397.8507 364.616883 404.6757 368.603896 408.0947 362.733766 412.0532 365.038961 408.6342 370.902597 416.4017 375.435065 421.1597 367.305195 425.1182 369.616883"></polygon>
                <polygon id="Stroke-171" stroke="#BA9653" stroke-width="1.14285714" mask="url(#mask-2)" points="417.7082 382.285714 391.2402 366.844156 398.3447 354.688312 402.3032 357 397.8507 364.616883 404.6757 368.603896 408.0947 362.733766 412.0532 365.038961 408.6342 370.902597 416.4017 375.435065 421.1597 367.305195 425.1182 369.616883"></polygon>
                <path d="M75.0113,363.293506 L77.0848,362.124675 C79.3403,360.858442 79.7238,359.287013 79.0478,358.098701 C78.0078,356.254545 76.7143,356.202597 74.7188,357.325974 L61.1793,364.942857 C59.1838,366.066234 58.5533,367.196104 59.5933,369.04026 C60.5293,370.702597 61.8098,370.715584 63.5453,369.741558 L66.7628,367.92987 L69.3433,372.514286 L66.2753,374.241558 C62.4988,376.364935 58.1828,375.871429 55.6023,371.287013 C52.8918,366.488312 54.7118,362.54026 58.4883,360.423377 L72.2423,352.683117 C76.0188,350.55974 80.3413,351.053247 83.0453,355.858442 C85.6258,360.436364 83.5458,364.520779 79.5548,366.767532 L77.5918,367.877922 L75.0113,363.293506 Z" id="Fill-172" fill="#FEFEFE" mask="url(#mask-2)"></path>
                <path d="M89.2112,404.346753 C87.5342,405.905195 87.1832,407.158442 88.6392,408.703896 C90.0822,410.255844 91.3562,410.002597 93.0332,408.437662 L104.3952,397.85974 C106.0722,396.294805 106.4102,395.041558 104.9737,393.496104 C103.5242,391.950649 102.2567,392.203896 100.5797,393.762338 L89.2112,404.346753 Z M97.0827,389.827273 C100.2482,386.879221 104.5642,386.34026 108.3212,390.372727 C112.0782,394.411688 111.2462,398.671429 108.0807,401.619481 L96.5237,412.366234 C93.3582,415.320779 89.0487,415.85974 85.2852,411.820779 C81.5152,407.788312 82.3602,403.535065 85.5322,400.587013 L97.0827,389.827273 Z" id="Fill-173" fill="#FEFEFE" mask="url(#mask-2)"></path>
                <polygon id="Fill-174" fill="#FEFEFE" mask="url(#mask-2)" points="117.16575 439.464935 134.04625 413.919481 138.12175 416.601299 133.81875 434.744156 133.88375 434.78961 143.54275 420.172727 147.50125 422.796104 130.62725 448.335065 126.79875 445.822078 131.74525 426.166234 131.67375 426.120779 121.13075 442.081818"></polygon>
                <polygon id="Fill-175" fill="#FEFEFE" mask="url(#mask-2)" points="161.11095 463.549351 171.62145 434.796104 185.41445 439.835065 183.84145 444.14026 175.00145 440.906494 172.29095 448.309091 178.90145 450.718182 177.32845 455.02987 170.71145 452.607792 166.05095 465.354545"></polygon>
                <polygon id="Fill-176" fill="#FEFEFE" mask="url(#mask-2)" points="207.08025 475.027273 210.83075 444.637662 224.81875 446.377922 224.25975 450.916883 215.49775 449.832468 214.52925 457.657143 221.26975 458.488312 220.71075 463.033766 213.97025 462.202597 212.86525 471.124675 222.20575 472.280519 221.64675 476.819481"></polygon>
                <path d="M258.1982,459.77013 L260.0572,459.568831 C262.8847,459.263636 263.8207,458.088312 263.4307,454.471429 C263.0407,450.848052 261.8707,449.906494 259.0432,450.205195 L257.1907,450.412987 L258.1982,459.77013 Z M260.0117,476.536364 L254.7792,477.107792 L251.4967,446.672727 L258.8352,445.880519 C264.6982,445.250649 267.9612,447.419481 268.6632,453.906494 C269.1962,458.802597 267.5062,460.984416 265.8227,461.977922 L271.7377,475.283117 L266.4272,475.854545 L261.3507,463.646753 C260.6812,463.802597 259.5892,463.964935 258.6662,464.062338 L260.0117,476.536364 Z" id="Fill-177" fill="#FEFEFE" mask="url(#mask-2)"></path>
                <polygon id="Fill-178" fill="#FEFEFE" mask="url(#mask-2)" points="302.81615 467.709091 292.59165 438.851948 305.87115 434.157143 307.40515 438.468831 299.08515 441.41039 301.71765 448.845455 308.11365 446.585714 309.64765 450.903896 303.24515 453.163636 306.24815 461.637662 315.13365 458.501299 316.66115 462.812987"></polygon>
                <polygon id="Fill-179" fill="#FEFEFE" mask="url(#mask-2)" points="346.4305 448.203247 329.7905 422.495455 333.8855 419.852597 348.7835 431.066883 348.8615 431.034416 339.339 416.326623 343.33 413.742208 359.97 439.45 356.122 441.937013 340.093 429.521429 340.028 429.566883 350.415 445.625325"></polygon>
                <path d="M378.7719,395.938312 L377.0494,394.301948 C375.1709,392.522727 373.5524,392.62013 372.6229,393.607143 C371.1539,395.13961 371.4919,396.392857 373.1494,397.964286 L384.4074,408.659091 C386.0649,410.237013 387.3324,410.503247 388.8014,408.970779 C390.1144,407.587662 389.7569,406.353896 388.3074,404.99026 L385.6359,402.451299 L389.2564,398.63961 L391.8109,401.068182 C394.9439,404.042208 395.7434,408.308442 392.1294,412.12013 C388.3269,416.113636 384.0174,415.535714 380.8779,412.561688 L369.4379,401.691558 C366.2919,398.717532 365.4924,394.451299 369.2949,390.451299 C372.9284,386.63961 377.4394,387.418831 380.7739,390.581169 L382.3989,392.126623 L378.7719,395.938312 Z" id="Fill-180" fill="#FEFEFE" mask="url(#mask-2)"></path>
                <polygon id="Fill-181" fill="#FEFEFE" mask="url(#mask-2)" points="416.5148 379.901299 390.0468 364.45974 397.1513 352.303896 401.1098 354.615584 396.6573 362.232468 403.4758 366.212987 406.9013 360.349351 410.8598 362.667532 407.4408 368.518182 415.2083 373.050649 419.9598 364.920779 423.9183 367.238961"></polygon>
            </g>
        </g>
    </g>
</svg>